<mxfile host="app.diagrams.net" modified="2023-10-17T07:56:09.371Z" agent="Mozilla/5.0 (Windows NT 10.0; Win64; x64) AppleWebKit/537.36 (KHTML, like Gecko) Chrome/116.0.0.0 Safari/537.36 OPR/102.0.0.0" etag="WgQPnsT87IxAMTgIrDrV" version="21.8.2" type="github">
  <diagram name="Сторінка-1" id="Xm3GS_noqdn_ys-yMm1C">
    <mxGraphModel dx="1555" dy="887" grid="1" gridSize="10" guides="1" tooltips="1" connect="1" arrows="1" fold="1" page="1" pageScale="1" pageWidth="827" pageHeight="1169" math="0" shadow="0">
      <root>
        <mxCell id="0" />
        <mxCell id="1" parent="0" />
        <mxCell id="YgugaBkHffZE8DEXQmD2-2" value="штсдгву" style="swimlane;whiteSpace=wrap;html=1;" parent="1" vertex="1">
          <mxGeometry x="-160" y="60" width="640" height="920" as="geometry" />
        </mxCell>
        <mxCell id="YgugaBkHffZE8DEXQmD2-5" value="Зберегти" style="ellipse;whiteSpace=wrap;html=1;" parent="YgugaBkHffZE8DEXQmD2-2" vertex="1">
          <mxGeometry x="380" y="510" width="100" height="70" as="geometry" />
        </mxCell>
        <mxCell id="YgugaBkHffZE8DEXQmD2-7" value="Вийти" style="ellipse;whiteSpace=wrap;html=1;" parent="YgugaBkHffZE8DEXQmD2-2" vertex="1">
          <mxGeometry x="280" y="370" width="120" height="80" as="geometry" />
        </mxCell>
        <mxCell id="YgugaBkHffZE8DEXQmD2-8" value="Порахувати" style="ellipse;whiteSpace=wrap;html=1;" parent="YgugaBkHffZE8DEXQmD2-2" vertex="1">
          <mxGeometry x="460" y="40" width="120" height="80" as="geometry" />
        </mxCell>
        <mxCell id="YgugaBkHffZE8DEXQmD2-9" value="Отримати інформацію" style="ellipse;whiteSpace=wrap;html=1;" parent="YgugaBkHffZE8DEXQmD2-2" vertex="1">
          <mxGeometry x="200" y="80" width="120" height="80" as="geometry" />
        </mxCell>
        <mxCell id="YgugaBkHffZE8DEXQmD2-13" value="Додати рядок" style="ellipse;whiteSpace=wrap;html=1;" parent="YgugaBkHffZE8DEXQmD2-2" vertex="1">
          <mxGeometry x="210" y="240" width="120" height="80" as="geometry" />
        </mxCell>
        <mxCell id="YgugaBkHffZE8DEXQmD2-12" value="Додати стовпчик" style="ellipse;whiteSpace=wrap;html=1;" parent="YgugaBkHffZE8DEXQmD2-2" vertex="1">
          <mxGeometry x="140" y="330" width="120" height="80" as="geometry" />
        </mxCell>
        <mxCell id="YgugaBkHffZE8DEXQmD2-11" value="Видалити стовпчик" style="ellipse;whiteSpace=wrap;html=1;" parent="YgugaBkHffZE8DEXQmD2-2" vertex="1">
          <mxGeometry x="360" y="690" width="120" height="80" as="geometry" />
        </mxCell>
        <mxCell id="YgugaBkHffZE8DEXQmD2-10" value="Видалити рядок" style="ellipse;whiteSpace=wrap;html=1;" parent="YgugaBkHffZE8DEXQmD2-2" vertex="1">
          <mxGeometry x="500" y="790" width="120" height="80" as="geometry" />
        </mxCell>
        <mxCell id="YgugaBkHffZE8DEXQmD2-26" value="include" style="endArrow=classic;html=1;rounded=0;entryX=0.5;entryY=0;entryDx=0;entryDy=0;dashed=1;dashPattern=8 8;" parent="YgugaBkHffZE8DEXQmD2-2" source="YgugaBkHffZE8DEXQmD2-14" target="YgugaBkHffZE8DEXQmD2-27" edge="1">
          <mxGeometry width="50" height="50" relative="1" as="geometry">
            <mxPoint x="50" y="350" as="sourcePoint" />
            <mxPoint x="70" y="340" as="targetPoint" />
          </mxGeometry>
        </mxCell>
        <mxCell id="YgugaBkHffZE8DEXQmD2-27" value="вибрати рядок і стовпчик" style="ellipse;whiteSpace=wrap;html=1;" parent="YgugaBkHffZE8DEXQmD2-2" vertex="1">
          <mxGeometry y="340" width="120" height="80" as="geometry" />
        </mxCell>
        <mxCell id="YgugaBkHffZE8DEXQmD2-28" value="include" style="endArrow=classic;html=1;rounded=0;dashed=1;dashPattern=8 8;entryX=0;entryY=0.363;entryDx=0;entryDy=0;entryPerimeter=0;" parent="YgugaBkHffZE8DEXQmD2-2" source="YgugaBkHffZE8DEXQmD2-11" target="YgugaBkHffZE8DEXQmD2-30" edge="1">
          <mxGeometry width="50" height="50" relative="1" as="geometry">
            <mxPoint x="70" y="550" as="sourcePoint" />
            <mxPoint x="290" y="590" as="targetPoint" />
          </mxGeometry>
        </mxCell>
        <mxCell id="YgugaBkHffZE8DEXQmD2-29" value="include" style="endArrow=classic;html=1;rounded=0;exitX=0;exitY=0.5;exitDx=0;exitDy=0;dashed=1;dashPattern=8 8;entryX=1;entryY=0;entryDx=0;entryDy=0;" parent="YgugaBkHffZE8DEXQmD2-2" source="YgugaBkHffZE8DEXQmD2-10" target="YgugaBkHffZE8DEXQmD2-30" edge="1">
          <mxGeometry width="50" height="50" relative="1" as="geometry">
            <mxPoint x="310" y="590" as="sourcePoint" />
            <mxPoint x="370" y="580" as="targetPoint" />
          </mxGeometry>
        </mxCell>
        <mxCell id="YgugaBkHffZE8DEXQmD2-30" value="Вибрати потрібний" style="ellipse;whiteSpace=wrap;html=1;" parent="YgugaBkHffZE8DEXQmD2-2" vertex="1">
          <mxGeometry x="310" y="810" width="120" height="80" as="geometry" />
        </mxCell>
        <mxCell id="YgugaBkHffZE8DEXQmD2-14" value="Ввести текст" style="ellipse;whiteSpace=wrap;html=1;" parent="YgugaBkHffZE8DEXQmD2-2" vertex="1">
          <mxGeometry x="80" y="200" width="120" height="80" as="geometry" />
        </mxCell>
        <mxCell id="mJrauiK9PNxvg0cMx_gn-2" value="якщо файл не був збережений&amp;nbsp;" style="shape=note;whiteSpace=wrap;html=1;backgroundOutline=1;darkOpacity=0.05;" vertex="1" parent="YgugaBkHffZE8DEXQmD2-2">
          <mxGeometry x="120" y="424" width="80" height="100" as="geometry" />
        </mxCell>
        <mxCell id="mJrauiK9PNxvg0cMx_gn-3" value="" style="endArrow=none;dashed=1;html=1;dashPattern=1 3;strokeWidth=2;rounded=0;" edge="1" parent="YgugaBkHffZE8DEXQmD2-2" source="mJrauiK9PNxvg0cMx_gn-2">
          <mxGeometry width="50" height="50" relative="1" as="geometry">
            <mxPoint x="110" y="640" as="sourcePoint" />
            <mxPoint x="230" y="540" as="targetPoint" />
          </mxGeometry>
        </mxCell>
        <mxCell id="mJrauiK9PNxvg0cMx_gn-4" value="include" style="endArrow=classic;html=1;rounded=0;exitX=0.194;exitY=0.964;exitDx=0;exitDy=0;exitPerimeter=0;dashed=1;dashPattern=8 8;entryX=0.5;entryY=0;entryDx=0;entryDy=0;" edge="1" parent="YgugaBkHffZE8DEXQmD2-2" source="YgugaBkHffZE8DEXQmD2-7" target="mJrauiK9PNxvg0cMx_gn-5">
          <mxGeometry width="50" height="50" relative="1" as="geometry">
            <mxPoint x="160" y="630" as="sourcePoint" />
            <mxPoint x="210" y="600" as="targetPoint" />
          </mxGeometry>
        </mxCell>
        <mxCell id="mJrauiK9PNxvg0cMx_gn-5" value="вивести попередження" style="ellipse;whiteSpace=wrap;html=1;" vertex="1" parent="YgugaBkHffZE8DEXQmD2-2">
          <mxGeometry x="130" y="600" width="120" height="80" as="geometry" />
        </mxCell>
        <mxCell id="mJrauiK9PNxvg0cMx_gn-6" value="extend" style="endArrow=classic;html=1;rounded=0;entryX=0.038;entryY=0.362;entryDx=0;entryDy=0;entryPerimeter=0;dashed=1;exitX=0.5;exitY=0;exitDx=0;exitDy=0;" edge="1" parent="YgugaBkHffZE8DEXQmD2-2" source="mJrauiK9PNxvg0cMx_gn-7" target="YgugaBkHffZE8DEXQmD2-5">
          <mxGeometry width="50" height="50" relative="1" as="geometry">
            <mxPoint x="330" y="580" as="sourcePoint" />
            <mxPoint x="320" y="590" as="targetPoint" />
          </mxGeometry>
        </mxCell>
        <mxCell id="mJrauiK9PNxvg0cMx_gn-7" value="вибрати місце для збереження" style="ellipse;whiteSpace=wrap;html=1;" vertex="1" parent="YgugaBkHffZE8DEXQmD2-2">
          <mxGeometry x="270" y="580" width="120" height="80" as="geometry" />
        </mxCell>
        <mxCell id="YgugaBkHffZE8DEXQmD2-3" value="користувач" style="shape=umlActor;verticalLabelPosition=bottom;verticalAlign=top;html=1;outlineConnect=0;" parent="1" vertex="1">
          <mxGeometry x="500" y="170" width="40" height="60" as="geometry" />
        </mxCell>
        <mxCell id="YgugaBkHffZE8DEXQmD2-16" value="" style="endArrow=classic;html=1;rounded=0;entryX=0.842;entryY=0.075;entryDx=0;entryDy=0;entryPerimeter=0;exitX=0.5;exitY=0.5;exitDx=0;exitDy=0;exitPerimeter=0;" parent="1" target="YgugaBkHffZE8DEXQmD2-13" edge="1" source="YgugaBkHffZE8DEXQmD2-3">
          <mxGeometry width="50" height="50" relative="1" as="geometry">
            <mxPoint x="780" y="226" as="sourcePoint" />
            <mxPoint x="551" y="165" as="targetPoint" />
          </mxGeometry>
        </mxCell>
        <mxCell id="YgugaBkHffZE8DEXQmD2-17" value="" style="endArrow=classic;html=1;rounded=0;entryX=1;entryY=0.5;entryDx=0;entryDy=0;exitX=0.5;exitY=0.5;exitDx=0;exitDy=0;exitPerimeter=0;" parent="1" source="YgugaBkHffZE8DEXQmD2-3" target="YgugaBkHffZE8DEXQmD2-9" edge="1">
          <mxGeometry width="50" height="50" relative="1" as="geometry">
            <mxPoint x="790" y="236" as="sourcePoint" />
            <mxPoint x="561" y="175" as="targetPoint" />
          </mxGeometry>
        </mxCell>
        <mxCell id="YgugaBkHffZE8DEXQmD2-18" value="" style="endArrow=classic;html=1;rounded=0;entryX=1;entryY=0.5;entryDx=0;entryDy=0;" parent="1" source="YgugaBkHffZE8DEXQmD2-3" target="YgugaBkHffZE8DEXQmD2-8" edge="1">
          <mxGeometry width="50" height="50" relative="1" as="geometry">
            <mxPoint x="800" y="246" as="sourcePoint" />
            <mxPoint x="571" y="185" as="targetPoint" />
          </mxGeometry>
        </mxCell>
        <mxCell id="YgugaBkHffZE8DEXQmD2-19" value="" style="endArrow=classic;html=1;rounded=0;entryX=1.017;entryY=0.588;entryDx=0;entryDy=0;entryPerimeter=0;" parent="1" source="YgugaBkHffZE8DEXQmD2-3" target="YgugaBkHffZE8DEXQmD2-5" edge="1">
          <mxGeometry width="50" height="50" relative="1" as="geometry">
            <mxPoint x="810" y="256" as="sourcePoint" />
            <mxPoint x="581" y="195" as="targetPoint" />
          </mxGeometry>
        </mxCell>
        <mxCell id="YgugaBkHffZE8DEXQmD2-20" value="" style="endArrow=classic;html=1;rounded=0;entryX=0.967;entryY=0.288;entryDx=0;entryDy=0;entryPerimeter=0;exitX=0.5;exitY=0.5;exitDx=0;exitDy=0;exitPerimeter=0;" parent="1" source="YgugaBkHffZE8DEXQmD2-3" target="YgugaBkHffZE8DEXQmD2-10" edge="1">
          <mxGeometry width="50" height="50" relative="1" as="geometry">
            <mxPoint x="820" y="266" as="sourcePoint" />
            <mxPoint x="591" y="205" as="targetPoint" />
          </mxGeometry>
        </mxCell>
        <mxCell id="YgugaBkHffZE8DEXQmD2-21" value="" style="endArrow=classic;html=1;rounded=0;entryX=1;entryY=0.5;entryDx=0;entryDy=0;" parent="1" source="YgugaBkHffZE8DEXQmD2-3" target="YgugaBkHffZE8DEXQmD2-11" edge="1">
          <mxGeometry width="50" height="50" relative="1" as="geometry">
            <mxPoint x="830" y="276" as="sourcePoint" />
            <mxPoint x="601" y="215" as="targetPoint" />
          </mxGeometry>
        </mxCell>
        <mxCell id="YgugaBkHffZE8DEXQmD2-22" value="" style="endArrow=classic;html=1;rounded=0;entryX=0.983;entryY=0.4;entryDx=0;entryDy=0;entryPerimeter=0;" parent="1" source="YgugaBkHffZE8DEXQmD2-3" target="YgugaBkHffZE8DEXQmD2-7" edge="1">
          <mxGeometry width="50" height="50" relative="1" as="geometry">
            <mxPoint x="840" y="286" as="sourcePoint" />
            <mxPoint x="611" y="225" as="targetPoint" />
          </mxGeometry>
        </mxCell>
        <mxCell id="YgugaBkHffZE8DEXQmD2-23" value="" style="endArrow=classic;html=1;rounded=0;entryX=1.025;entryY=0.375;entryDx=0;entryDy=0;entryPerimeter=0;exitX=0.5;exitY=0.5;exitDx=0;exitDy=0;exitPerimeter=0;" parent="1" source="YgugaBkHffZE8DEXQmD2-3" target="YgugaBkHffZE8DEXQmD2-14" edge="1">
          <mxGeometry width="50" height="50" relative="1" as="geometry">
            <mxPoint x="850" y="296" as="sourcePoint" />
            <mxPoint x="621" y="235" as="targetPoint" />
          </mxGeometry>
        </mxCell>
        <mxCell id="YgugaBkHffZE8DEXQmD2-25" value="" style="endArrow=classic;html=1;rounded=0;exitX=0.5;exitY=0.5;exitDx=0;exitDy=0;exitPerimeter=0;" parent="1" target="YgugaBkHffZE8DEXQmD2-12" edge="1" source="YgugaBkHffZE8DEXQmD2-3">
          <mxGeometry width="50" height="50" relative="1" as="geometry">
            <mxPoint x="780" y="230" as="sourcePoint" />
            <mxPoint x="480" y="500" as="targetPoint" />
          </mxGeometry>
        </mxCell>
      </root>
    </mxGraphModel>
  </diagram>
</mxfile>
